{"glyphs":{":":{"x_min":0,"x_max":297,"ha":297,"o":"m 139 127 l 147 127 q 169 127 180 118 q 191 109 191 86 l 191 80 l 190 72 l 189 61 q 189 47 167 17 q 156 0 129 0 q 125 -1 123 -1 l 112 -2 l 109 -1 l 105 -1 l 97 0 q 65 0 65 25 q 64 29 64 31 l 63 39 l 63 45 l 65 62 q 65 91 87 109 q 109 127 139 127 z m 175 334 q 135 334 135 363 l 134 375 l 134 382 q 134 426 161 449 q 177 462 198 462 l 212 464 l 216 464 q 242 464 252 454 q 262 444 262 420 l 261 418 q 261 386 237 353 q 226 336 199 336 l 188 334 z"},"$":{"x_min":0,"x_max":538,"ha":538,"o":"m 385 173 l 385 190 q 385 219 363 245 q 341 270 329 270 l 325 270 q 315 270 315 245 q 315 220 297 152 l 296 150 l 287 115 l 273 65 l 273 62 q 273 58 276 58 l 283 58 q 319 58 352 96 q 385 133 385 173 z m 304 492 l 305 497 l 310 517 q 311 524 315 537 l 321 558 l 321 560 l 327 579 q 329 585 329 587 l 329 589 q 329 592 326 592 l 319 592 q 289 592 258 562 q 228 532 228 503 l 226 491 l 226 478 q 226 447 248 425 q 270 403 279 403 l 283 403 q 290 403 290 416 l 293 432 q 294 438 294 440 q 294 443 304 492 z m 513 569 q 513 552 502 540 q 492 529 476 529 q 469 529 443 553 q 417 578 393 578 q 372 578 358 536 q 332 457 332 410 q 332 386 376 351 q 421 315 444 283 q 467 250 467 208 q 467 131 419 79 q 371 27 302 14 q 259 5 251 -1 q 244 -7 230 -41 q 216 -75 198 -75 q 177 -75 177 -31 q 177 -5 138 11 q 99 28 86 42 q 63 70 63 93 q 63 115 75 126 q 86 137 96 137 q 105 137 141 103 q 176 69 202 69 q 229 69 240 95 q 275 181 275 253 q 275 274 268 284 q 262 294 221 330 q 181 366 164 394 q 146 423 146 459 q 146 492 162 527 q 203 616 305 639 q 335 646 344 652 q 353 658 367 681 q 381 705 394 705 q 406 705 423 667 q 430 653 471 629 q 513 604 513 569 z"},"?":{"x_min":0,"x_max":466,"ha":466,"o":"m 244 72 l 243 62 q 243 45 223 17 q 210 -1 182 -1 l 169 -2 l 165 -2 q 120 -2 120 33 l 120 47 q 120 72 143 104 q 155 122 189 122 l 204 122 q 210 120 214 120 q 242 120 242 98 l 244 90 l 245 80 l 245 74 z m 296 686 l 315 686 q 381 686 425 646 q 468 606 468 547 q 468 487 433 440 q 398 393 341 347 l 319 331 q 287 305 276 293 q 265 281 259 250 q 252 220 250 215 q 243 198 223 198 l 215 198 q 184 198 184 251 q 184 288 204 321 q 225 354 268 391 q 311 428 337 462 q 364 497 364 532 q 364 604 284 604 q 264 604 220 580 q 176 556 168 556 q 139 556 139 582 q 139 622 177 648 q 231 686 296 686 z"},"<":{"x_min":0,"x_max":576,"ha":576,"o":"m 183 281 q 183 269 310 207 q 437 145 470 121 q 503 98 503 57 q 503 37 490 37 q 457 37 109 231 q 79 248 79 270 q 79 307 106 322 q 145 344 258 396 q 371 448 440 484 q 509 521 518 521 q 526 521 526 491 q 526 460 490 437 q 454 413 318 351 q 183 289 183 281 z"},"'":{"x_min":0,"x_max":253,"ha":253,"o":"m 145 459 q 147 473 149 492 q 151 511 151 525 l 153 540 l 154 553 l 155 560 l 155 571 l 157 591 q 162 622 162 632 q 162 672 175 687 q 188 702 223 702 l 232 702 q 262 702 262 687 l 262 681 q 261 675 261 671 q 261 613 205 467 q 193 436 167 436 l 160 436 q 145 436 145 447 z"},"=":{"x_min":0,"x_max":579,"ha":579,"o":"m 542 212 l 542 193 q 542 160 524 157 q 507 155 325 155 l 103 155 q 74 155 74 173 l 74 177 l 74 182 q 74 211 82 218 q 89 225 128 225 l 502 225 q 542 225 542 212 z m 268 410 l 522 410 q 551 410 551 392 l 551 387 l 551 382 q 551 350 541 344 q 531 339 448 339 l 128 339 q 83 339 83 357 l 83 362 l 84 367 q 84 402 97 406 q 110 410 268 410 z"},"a":{"x_min":0,"x_max":525,"ha":525,"o":"m 369 355 q 369 376 355 389 q 342 401 318 401 l 301 401 q 285 401 257 387 q 229 372 203 333 q 176 294 160 242 q 144 191 144 161 l 144 139 q 144 108 156 89 q 168 70 187 70 l 198 70 q 213 70 244 89 q 274 107 304 151 q 334 194 351 255 q 368 316 368 338 l 369 347 z m 39 138 l 39 157 q 39 206 64 266 q 115 383 208 435 q 254 459 298 459 l 307 459 q 325 459 352 450 q 379 441 386 441 q 394 441 413 448 q 433 454 447 454 q 485 454 485 412 q 485 401 460 296 q 436 191 436 158 q 436 125 455 106 q 474 87 474 74 q 474 46 447 26 q 419 6 383 6 l 375 6 q 345 6 329 42 q 312 77 306 77 q 298 77 276 61 q 212 12 157 12 q 103 12 71 44 q 39 76 39 138 z"},"L":{"x_min":0,"x_max":541,"ha":541,"o":"m 246 684 q 345 684 345 645 q 345 632 328 611 q 311 590 302 576 q 292 562 284 533 q 276 505 236 315 q 195 125 195 108 q 195 91 215 83 q 236 76 287 76 q 338 76 384 94 q 469 129 472 129 q 496 129 496 103 l 496 93 q 496 2 416 2 l 404 3 l 318 4 l 278 4 q 102 4 70 8 q 39 12 39 34 q 39 42 62 79 q 86 115 101 170 q 116 225 150 390 q 185 556 185 571 q 185 587 175 606 q 166 626 166 642 q 166 658 187 671 q 208 684 234 684 z"},"3":{"x_min":0,"x_max":539,"ha":539,"o":"m 503 551 q 503 465 418 397 q 374 361 374 352 q 374 350 401 331 q 468 287 468 199 q 468 113 393 47 q 360 18 312 0 q 265 -19 222 -19 l 190 -19 q 134 -19 84 8 q 34 34 34 69 q 34 104 68 104 q 76 104 128 79 q 180 53 223 53 q 285 53 325 95 q 365 138 365 205 q 365 249 328 277 q 308 292 262 304 q 216 315 216 333 q 216 351 229 362 q 231 363 281 386 q 332 408 355 433 q 394 472 394 509 q 394 546 369 562 q 345 579 307 579 q 269 579 221 559 q 172 539 166 539 q 150 539 150 555 q 150 572 166 594 q 183 616 216 632 q 275 660 349 660 q 423 660 463 629 q 503 599 503 551 z"},";":{"x_min":0,"x_max":297,"ha":297,"o":"m 140 132 l 151 132 q 190 132 190 102 l 190 87 q 190 23 139 -50 q 108 -94 67 -123 q 45 -138 31 -138 l 27 -138 q 13 -138 13 -125 l 13 -120 q 13 -115 36 -92 q 58 -70 60 -67 q 89 -24 89 -2 q 89 2 82 22 q 75 42 75 60 q 75 97 94 115 q 113 132 140 132 z m 208 464 l 220 464 q 263 464 263 427 l 263 415 l 263 413 l 263 409 q 262 404 262 402 q 262 368 233 348 q 216 335 190 335 l 179 335 q 136 335 136 372 l 136 386 q 137 394 137 397 q 137 428 159 446 q 180 464 208 464 z"},"J":{"x_min":0,"x_max":454,"ha":454,"o":"m 112 -47 l 101 -47 q 58 -47 23 -27 q -12 -7 -12 27 q -12 50 2 62 q 16 75 31 75 q 45 75 73 67 q 100 59 121 59 q 155 59 188 93 q 220 128 242 190 q 265 252 285 372 q 305 491 305 523 q 305 556 285 585 q 266 614 266 628 q 266 653 304 667 q 342 682 385 682 q 429 682 452 664 q 463 654 463 646 l 463 640 q 463 630 452 604 q 427 550 383 346 q 339 143 313 89 q 286 36 233 -5 q 180 -47 112 -47 z"},"V":{"x_min":0,"x_max":626,"ha":626,"o":"m 642 678 l 655 678 q 692 678 692 653 l 692 645 q 692 628 658 592 q 624 555 479 307 q 334 60 325 47 q 295 6 261 6 q 226 6 217 48 q 215 55 208 117 q 202 178 188 273 l 174 383 q 158 500 153 526 q 148 552 127 583 q 106 615 106 625 l 106 635 q 106 657 137 669 q 150 674 193 674 q 236 674 257 653 q 268 642 268 608 l 266 585 q 264 561 264 531 q 264 500 282 332 q 300 163 303 157 l 307 152 q 312 152 321 166 q 395 278 491 471 q 527 543 537 569 q 546 594 549 618 q 552 643 560 652 q 580 678 642 678 z"},"\"":{"x_min":0,"x_max":414,"ha":414,"o":"m 218 707 l 224 707 q 256 707 256 692 l 256 683 q 256 663 246 628 q 235 593 218 534 q 202 476 197 466 q 187 441 161 441 l 155 441 q 140 441 140 452 l 140 464 q 142 478 143 484 q 143 494 146 520 q 149 554 149 562 l 151 575 l 152 589 q 154 606 155 616 q 156 626 158 638 q 159 650 159 653 q 159 685 173 696 q 188 707 218 707 z m 329 644 q 329 682 344 694 q 358 707 393 707 q 428 707 428 691 l 428 688 l 427 685 q 427 618 372 474 q 359 441 334 441 l 326 441 q 311 441 311 455 l 312 458 l 312 462 l 312 476 q 314 489 315 497 q 315 504 317 519 q 319 535 319 542 q 320 548 320 552 l 321 559 l 322 580 q 323 583 323 589 q 324 595 325 608 q 327 621 327 624 l 328 634 q 329 641 329 644 z"},"7":{"x_min":0,"x_max":536,"ha":536,"o":"m 109 0 l 109 9 q 109 52 267 286 q 425 521 425 538 q 425 555 408 562 q 391 568 331 568 q 271 568 217 555 q 164 542 152 542 q 130 542 130 566 q 130 601 146 624 q 171 657 210 657 l 221 657 l 233 657 l 256 655 q 272 654 292 654 l 381 655 q 506 655 531 650 q 555 645 555 622 q 555 599 534 566 q 512 532 500 514 q 488 496 484 490 l 354 286 q 286 179 247 99 q 208 19 199 7 q 182 -19 145 -19 q 109 -19 109 0 z"},"S":{"x_min":0,"x_max":543,"ha":543,"o":"m 420 601 q 389 619 341 619 q 293 619 259 589 q 225 560 225 515 q 225 471 265 438 q 276 429 353 383 q 429 337 459 300 q 489 262 489 212 q 489 113 418 52 q 391 28 346 11 q 301 -5 254 -5 l 237 -5 q 223 -5 151 9 q 80 22 72 26 q 35 45 35 99 q 35 128 48 146 q 61 164 77 164 q 85 164 117 131 q 148 97 179 81 q 210 64 261 64 q 312 64 351 95 q 389 126 389 172 q 389 218 356 250 q 342 265 263 314 q 184 363 156 401 q 127 438 127 487 q 127 578 194 634 q 224 659 265 674 q 306 688 342 688 l 359 688 q 374 688 438 677 q 501 667 510 662 q 539 645 539 607 q 539 569 526 553 q 514 538 502 538 q 490 538 461 566 q 433 594 420 601 z"},"}":{"x_min":0,"x_max":379,"ha":379,"o":"m 309 596 q 309 563 291 484 q 272 405 272 378 q 272 352 282 337 q 293 323 316 307 q 339 291 339 285 l 339 275 q 339 261 289 238 q 258 224 241 194 q 225 163 212 57 q 200 -50 167 -97 q 144 -129 103 -148 q 62 -168 19 -168 l 8 -168 q -8 -168 -8 -156 q -8 -139 37 -109 q 82 -79 94 -60 q 116 -24 128 64 q 141 153 155 187 q 170 221 188 237 q 206 252 224 263 q 243 273 243 276 q 243 279 226 294 q 208 310 199 329 q 189 349 189 380 q 189 412 205 480 q 220 549 220 573 q 220 617 193 646 q 153 689 153 703 q 153 718 171 718 l 183 718 q 238 718 274 687 q 309 656 309 596 z"},"Z":{"x_min":0,"x_max":591,"ha":591,"o":"m 532 97 q 532 57 504 29 q 475 1 428 1 l 360 1 l 342 1 l 249 2 q 97 2 60 5 q 23 8 23 29 q 23 56 64 109 q 106 163 127 188 q 149 212 162 227 l 233 312 q 257 340 269 354 q 460 586 460 599 q 460 612 374 612 q 288 612 216 584 q 172 567 165 567 q 138 567 138 591 q 138 632 163 656 q 188 681 243 681 l 261 681 l 279 681 l 408 681 q 564 681 571 680 q 612 677 612 657 q 612 623 540 539 l 492 481 q 479 467 468 453 l 420 396 q 177 107 177 94 q 177 72 255 72 q 373 72 457 102 q 505 120 507 120 q 532 120 532 97 z"},"x":{"x_min":0,"x_max":503,"ha":503,"o":"m 359 138 q 375 113 406 93 q 436 73 436 57 q 436 42 411 30 q 371 10 339 10 q 307 10 286 38 q 275 52 254 97 q 232 143 228 143 q 215 143 170 86 q 125 29 121 25 q 98 3 68 3 q 11 3 11 26 q 11 48 60 76 q 108 104 144 142 q 207 211 207 239 q 207 267 170 330 q 154 356 125 379 q 96 401 96 416 q 96 431 111 438 q 147 457 192 457 q 220 457 241 431 q 250 419 271 378 q 292 336 295 336 q 305 336 344 385 q 383 434 398 447 q 414 460 439 460 q 464 460 479 450 q 494 441 494 436 q 494 415 435 382 q 402 365 358 318 q 314 272 314 240 q 314 209 359 138 z"},")":{"x_min":0,"x_max":358,"ha":358,"o":"m 306 409 l 306 376 q 306 211 208 40 q 169 -29 102 -98 q 36 -167 5 -167 l -3 -167 q -18 -167 -18 -154 q -18 -142 17 -103 q 52 -63 85 -20 q 118 24 151 99 q 219 252 219 419 q 219 531 178 627 q 157 679 157 688 q 157 714 179 714 q 202 714 223 686 q 244 657 267 603 q 306 507 306 409 z"},"&":{"x_min":0,"x_max":691,"ha":691,"o":"m 377 119 l 377 125 q 377 131 349 172 q 321 213 308 236 q 262 315 252 315 q 217 315 190 272 q 163 229 163 199 l 163 179 q 163 137 194 102 q 226 67 274 67 l 288 67 q 294 68 297 68 q 323 68 350 88 q 377 109 377 119 z m 332 431 q 354 431 393 476 q 432 521 432 561 l 432 576 q 432 594 420 608 q 408 622 392 622 l 380 622 q 375 621 373 621 q 346 621 323 586 q 301 552 301 516 l 301 511 l 301 509 l 301 503 l 302 494 q 302 472 320 440 q 325 431 332 431 z m 608 28 q 608 16 587 16 q 567 16 527 30 q 487 43 462 43 q 437 43 358 29 q 279 14 251 14 l 236 14 q 166 14 120 55 q 94 79 82 111 q 69 143 69 170 l 69 185 q 69 273 178 349 q 211 372 214 375 q 230 391 230 416 q 230 422 224 456 q 218 489 218 514 q 218 582 257 628 q 296 674 353 674 q 410 674 447 639 q 483 604 483 543 q 483 508 448 442 q 413 376 413 338 q 413 300 427 287 q 441 273 467 273 q 469 273 514 295 q 559 316 589 316 q 619 316 619 298 q 619 286 606 268 q 592 250 568 204 q 544 159 544 135 q 544 110 576 72 q 608 34 608 28 z"},"_":{"x_min":0,"x_max":523,"ha":523,"o":"m 464 -131 l 395 -131 l 389 -131 l 272 -131 l 254 -130 l 231 -130 q -28 -130 -28 -121 l -28 -110 l -27 -105 q -27 -75 0 -75 l 199 -75 l 205 -75 l 246 -75 q 499 -75 499 -85 l 499 -90 l 499 -96 q 499 -121 495 -126 q 491 -131 464 -131 z"},"v":{"x_min":0,"x_max":496,"ha":496,"o":"m 63 411 q 63 458 134 458 q 176 458 193 416 q 213 365 213 241 q 213 118 231 118 q 236 118 248 130 q 351 242 389 375 q 405 431 407 435 q 425 465 463 465 q 495 465 495 428 q 495 403 479 373 q 407 232 357 160 q 308 88 260 41 q 228 9 194 9 q 160 9 147 43 q 142 59 136 159 q 125 334 94 366 q 63 398 63 411 z"},"O":{"x_min":0,"x_max":723,"ha":723,"o":"m 580 447 l 580 463 q 580 536 547 579 q 514 622 462 622 l 455 622 q 364 622 289 512 q 251 456 229 379 q 206 302 206 234 l 207 227 q 207 147 240 106 q 274 64 323 64 q 424 64 496 172 q 538 235 559 312 q 580 388 580 447 z m 694 464 l 694 442 q 694 365 658 277 q 586 104 446 32 q 378 -3 308 -3 l 297 -3 q 205 -3 148 58 q 91 120 91 226 l 91 236 q 91 312 123 397 q 154 483 212 552 q 271 621 341 656 q 412 691 480 691 l 491 691 q 530 691 568 677 q 647 647 680 554 q 694 514 694 464 z"},"(":{"x_min":0,"x_max":358,"ha":358,"o":"m 406 696 q 406 689 373 653 q 339 617 304 571 q 269 524 236 449 q 169 295 169 131 q 169 21 209 -77 q 231 -130 231 -146 q 231 -166 211 -166 l 203 -166 q 185 -166 162 -134 q 140 -101 118 -46 q 82 45 82 149 l 82 170 q 82 331 173 497 q 216 574 284 645 q 353 715 389 715 q 406 715 406 703 z"},"C":{"x_min":0,"x_max":635,"ha":635,"o":"m 336 584 q 244 527 202 397 q 182 335 182 276 q 182 127 283 85 q 314 72 358 72 q 402 72 472 103 q 542 134 557 134 q 572 134 572 115 q 572 97 555 74 q 538 51 494 31 q 423 -2 333 -2 l 316 -2 q 315 -2 314 -2 q 270 -2 224 15 q 176 32 140 70 q 71 141 71 254 l 71 271 q 71 354 105 435 q 140 516 192 571 q 300 683 441 683 l 456 683 q 539 683 611 659 q 646 647 646 597 q 646 562 627 540 q 620 530 610 530 q 601 530 567 558 q 533 585 505 598 q 477 611 429 611 q 381 611 336 584 z"},"W":{"x_min":0,"x_max":898,"ha":898,"o":"m 952 635 q 952 618 922 582 q 908 563 792 326 q 675 89 668 78 q 646 42 621 29 l 604 24 q 561 24 545 89 q 540 113 525 276 q 510 439 507 453 l 502 469 q 491 469 415 318 q 338 167 309 121 q 257 39 224 39 q 210 39 194 56 q 179 74 175 98 q 172 123 162 294 l 158 398 q 154 482 151 506 q 147 529 134 562 q 121 595 121 616 q 121 638 142 650 q 163 663 197 663 q 232 663 247 645 q 261 628 261 577 l 260 557 l 258 488 l 259 463 l 261 413 q 262 379 262 337 q 262 208 279 208 q 290 208 376 375 q 393 408 433 498 q 473 588 484 605 q 514 651 559 651 q 579 651 591 630 q 597 620 602 588 q 606 556 617 375 q 629 194 636 194 q 647 194 719 350 q 792 506 809 566 q 826 626 832 635 q 855 670 898 670 l 917 670 q 952 670 952 635 z"},"A":{"x_min":0,"x_max":646,"ha":646,"o":"m 371 275 q 419 275 419 301 l 419 305 l 418 309 l 418 317 l 413 418 q 413 559 401 559 q 398 559 381 520 q 363 482 358 473 q 353 464 344 446 q 336 427 326 409 q 316 391 311 378 q 305 366 280 325 q 254 284 254 282 q 254 277 321 277 l 360 275 z m 33 58 l 33 65 q 33 93 351 619 q 391 685 444 685 q 478 685 488 637 q 489 629 513 412 l 515 384 l 518 357 q 522 321 525 298 q 527 275 533 216 q 538 158 554 128 q 571 98 571 88 q 571 59 540 36 q 509 14 469 14 q 410 14 410 44 q 410 50 416 77 q 421 103 421 126 q 421 182 390 200 q 375 208 296 208 q 218 208 203 192 q 188 176 164 120 q 141 63 138 47 q 136 31 134 28 q 124 14 95 14 l 85 14 q 66 14 50 31 q 33 47 33 58 z"},"f":{"x_min":0,"x_max":337,"ha":337,"o":"m 389 717 q 458 717 458 684 q 458 665 447 652 q 436 639 419 639 l 359 646 q 322 646 296 607 q 269 567 269 532 q 269 497 280 486 q 291 476 317 466 q 344 456 344 442 q 344 434 299 403 q 254 373 237 339 q 226 317 186 153 q 147 -11 122 -52 q 81 -120 29 -120 l 18 -120 q -21 -120 -21 -100 q -21 -85 19 -42 q 46 -12 69 57 q 119 207 119 329 q 119 339 114 365 q 109 390 109 430 q 109 450 139 482 q 169 515 188 564 q 225 660 300 697 q 340 717 376 717 z"},"Q":{"x_min":0,"x_max":723,"ha":723,"o":"m 317 74 l 330 74 q 359 74 381 95 q 471 178 515 255 q 559 333 559 436 l 559 467 q 559 522 530 564 q 502 605 448 605 l 441 605 q 400 605 356 576 q 276 523 229 387 q 205 316 205 261 l 205 231 q 205 170 238 122 q 271 74 317 74 z m 633 -69 q 633 -74 622 -82 q 587 -108 514 -108 l 502 -108 q 461 -108 417 -89 q 223 -7 191 26 q 171 47 152 131 q 133 214 133 286 l 133 315 q 133 476 211 570 q 263 633 311 659 q 358 685 420 685 l 444 685 q 489 685 531 664 q 613 623 642 537 q 660 485 660 438 l 660 424 q 660 273 545 127 q 485 49 485 29 q 485 8 539 -28 q 575 -52 590 -57 q 606 -62 619 -64 q 633 -66 633 -69 z"},"w":{"x_min":0,"x_max":725,"ha":725,"o":"m 688 454 q 710 454 710 426 q 710 397 692 358 q 596 149 591 139 q 549 64 526 41 q 503 17 472 17 q 441 17 422 61 q 403 105 388 191 q 373 277 364 277 l 298 177 q 253 110 234 87 q 195 42 165 42 q 136 42 128 84 q 75 368 75 414 q 75 429 88 445 q 102 461 122 461 q 172 461 188 424 q 196 405 196 269 q 196 134 214 134 q 232 134 289 244 q 312 288 340 350 q 367 413 369 415 q 388 448 419 448 q 451 448 459 413 q 468 378 468 255 q 468 131 486 131 q 506 131 558 223 q 583 267 598 303 q 612 339 627 378 q 642 417 646 425 q 664 454 688 454 z"},"-":{"x_min":0,"x_max":355,"ha":355,"o":"m 325 290 l 325 282 q 325 246 313 233 q 300 221 274 221 l 66 221 q 55 221 55 230 l 55 233 q 55 281 78 293 q 87 297 206 297 l 302 298 l 309 298 q 325 298 325 290 z"},"E":{"x_min":0,"x_max":583,"ha":583,"o":"m 510 92 q 510 43 469 19 q 444 3 367 3 l 232 3 q 125 3 75 18 q 45 27 45 54 q 45 66 64 89 q 83 111 92 128 q 100 146 131 253 q 187 445 187 553 q 187 577 179 593 l 172 604 q 163 619 163 624 q 163 650 190 657 q 286 679 497 679 l 515 679 q 545 679 562 668 q 579 657 579 618 q 579 580 557 580 q 550 580 541 583 l 531 587 q 477 611 415 611 q 353 611 327 583 q 310 564 289 514 q 269 464 269 437 l 274 428 q 290 413 324 413 q 359 413 389 422 q 418 432 424 432 q 448 432 459 418 q 469 405 469 373 q 469 340 452 312 q 436 284 417 284 q 399 284 370 296 q 342 308 317 308 q 252 308 227 272 q 203 237 203 139 q 203 104 220 88 q 237 72 294 72 q 351 72 384 81 q 417 89 447 99 q 477 110 494 110 q 510 110 510 92 z"},"s":{"x_min":0,"x_max":425,"ha":425,"o":"m 201 312 q 211 304 263 273 q 315 243 335 222 q 365 189 365 142 q 365 78 312 36 q 260 -6 186 -6 q 112 -6 66 13 q 21 33 21 69 q 21 89 31 102 q 42 116 61 116 q 67 116 108 85 q 148 55 190 55 q 231 55 254 75 q 276 95 276 121 q 276 147 249 171 q 237 180 187 210 q 137 240 113 268 q 90 295 90 346 q 90 397 140 438 q 190 478 258 478 l 270 478 q 339 478 378 456 q 404 441 404 417 q 404 393 393 381 q 382 368 370 368 q 358 368 322 392 q 286 416 252 416 q 218 416 197 399 q 177 382 177 358 q 177 333 201 312 z"},">":{"x_min":0,"x_max":576,"ha":576,"o":"m 527 290 l 527 281 q 527 250 503 236 q 462 212 342 157 q 222 102 160 68 q 99 35 90 35 q 80 35 80 58 q 80 96 127 126 q 161 147 292 208 q 424 269 424 274 q 424 284 286 355 q 148 426 133 438 q 103 461 103 491 q 103 520 115 520 q 126 520 165 499 q 203 477 353 400 q 503 323 503 323 q 527 309 527 290 z"},"l":{"x_min":0,"x_max":287,"ha":287,"o":"m 238 711 l 253 711 q 281 711 281 681 q 281 660 229 431 q 176 203 176 136 q 176 104 193 86 q 210 67 210 51 q 210 35 186 22 q 149 2 108 2 q 88 2 74 20 q 61 38 61 66 q 61 70 115 331 q 168 591 168 606 q 168 621 159 644 q 150 667 150 675 q 150 711 238 711 z"},"8":{"x_min":0,"x_max":547,"ha":547,"o":"m 236 63 l 244 63 q 301 63 342 108 q 382 152 382 203 l 382 213 q 381 221 381 224 q 381 254 349 283 q 317 312 285 312 l 281 312 q 239 312 197 257 q 155 202 155 153 l 155 142 q 155 106 179 85 q 203 63 236 63 z m 435 539 l 435 549 q 435 579 414 597 q 394 616 362 616 l 358 616 q 315 616 278 582 q 241 549 241 504 l 241 489 q 241 458 267 432 q 293 405 325 405 l 328 405 q 366 405 400 453 q 435 501 435 539 z m 523 560 l 523 550 q 522 472 436 400 q 396 369 396 366 q 396 364 423 338 q 449 312 463 285 q 477 259 477 220 q 477 181 458 139 q 439 98 402 63 q 328 -6 222 -6 q 151 -6 107 33 q 63 72 63 134 q 63 234 153 307 q 214 357 214 358 q 214 359 195 381 q 150 433 150 489 q 150 523 170 562 q 191 600 225 627 q 292 684 382 684 q 442 684 482 651 q 523 618 523 560 z"},"\\":{"x_min":0,"x_max":437,"ha":437,"o":"m 356 -64 l 349 -64 q 320 -64 302 -10 q 223 233 118 621 q 99 689 99 700 q 99 711 132 711 q 164 711 180 664 q 231 508 269 362 q 307 215 346 94 q 385 -26 385 -43 l 385 -50 q 385 -64 356 -64 z"},"e":{"x_min":0,"x_max":483,"ha":483,"o":"m 374 351 l 374 359 q 374 384 357 398 q 340 413 316 413 l 305 413 q 299 412 296 412 q 266 412 226 376 q 169 326 169 292 l 169 288 q 169 275 184 275 l 192 275 l 210 277 l 229 280 q 296 280 353 311 q 374 323 374 351 z m 461 379 l 461 360 q 461 333 448 307 q 434 280 410 266 q 386 252 326 239 q 266 226 228 220 q 190 214 180 211 q 147 201 147 167 q 147 123 174 97 q 201 71 254 71 q 282 71 337 92 q 391 114 400 114 q 419 114 419 97 q 419 64 353 32 q 288 0 232 0 l 211 0 q 141 0 95 47 q 50 94 50 167 l 50 178 q 50 225 72 279 q 121 398 247 455 q 295 476 346 476 q 398 476 429 448 q 461 420 461 379 z"},"b":{"x_min":0,"x_max":536,"ha":536,"o":"m 174 129 l 174 116 q 174 94 189 78 q 204 62 229 62 l 233 62 l 237 62 q 258 62 287 79 q 315 96 342 137 q 369 178 384 229 q 399 279 399 316 l 399 330 q 399 366 385 385 q 370 404 346 404 l 342 404 q 323 404 293 386 q 263 368 234 324 q 206 280 190 220 q 174 160 174 129 z m 225 699 l 243 699 q 274 699 274 660 q 274 653 263 601 q 251 549 241 514 q 232 479 232 470 q 232 441 268 441 q 270 441 300 448 q 330 454 349 454 q 407 454 447 414 q 486 375 486 301 l 486 290 q 486 235 461 177 q 387 3 242 2 q 218 2 185 11 q 151 20 144 20 l 107 15 q 86 15 75 27 q 64 38 64 54 l 64 62 q 64 73 83 149 q 103 225 136 390 q 170 556 170 578 q 170 600 162 622 q 154 643 154 654 q 154 699 225 699 z"},"%":{"x_min":0,"x_max":790,"ha":790,"o":"m 572 45 l 578 45 l 581 45 q 607 45 639 96 q 671 146 671 211 l 671 226 q 671 254 659 267 q 648 280 635 280 l 629 280 l 627 280 q 596 280 570 233 q 537 171 537 118 l 537 100 q 537 71 548 58 q 560 45 572 45 z m 229 392 l 234 392 q 265 392 295 445 q 326 498 326 556 l 326 574 q 326 599 316 613 q 305 627 292 627 l 281 627 q 253 627 224 577 q 194 527 194 486 q 192 470 192 467 l 192 446 q 192 417 204 404 q 216 392 229 392 z m 746 232 l 746 211 q 746 182 731 140 q 701 52 630 10 q 597 -9 561 -9 l 556 -9 q 514 -9 488 19 q 461 48 461 99 l 461 109 q 461 143 477 187 q 493 232 520 265 q 577 334 642 334 l 657 334 q 693 334 719 306 q 746 277 746 232 z m 721 669 q 721 665 704 641 q 562 437 225 28 q 197 -6 170 -6 q 143 -6 143 1 q 143 8 169 44 q 427 396 638 642 q 667 676 695 676 l 703 676 q 721 676 721 669 z m 401 580 l 401 559 q 400 523 383 479 q 346 388 277 353 q 247 338 217 338 l 212 338 l 207 338 q 167 338 142 368 q 117 397 117 439 l 117 456 q 117 491 132 535 q 147 579 174 610 q 232 681 296 681 l 311 681 q 351 681 376 652 q 401 622 401 580 z"},"m":{"x_min":0,"x_max":802,"ha":802,"o":"m 590 374 q 547 374 510 307 q 474 241 450 152 q 426 63 409 46 q 392 29 340 29 q 311 29 311 55 q 311 66 336 187 q 361 307 361 325 q 361 381 330 381 q 275 381 225 313 q 200 280 156 140 q 125 41 102 41 q 95 41 81 58 q 68 75 68 104 q 68 132 77 178 q 86 224 95 288 q 104 352 104 352 q 119 397 149 423 q 163 435 176 435 q 189 435 208 411 q 228 387 230 387 q 237 387 288 416 q 339 444 385 444 q 431 444 457 419 q 459 416 471 398 q 483 380 491 380 q 500 380 525 398 q 551 416 564 423 q 609 448 650 448 q 691 448 716 419 q 741 389 741 349 q 741 309 725 214 q 708 119 708 74 l 709 62 l 709 53 q 709 37 684 37 q 658 37 641 62 q 624 87 624 128 q 624 168 631 215 q 638 262 638 292 q 638 322 624 348 q 610 374 590 374 z"},"#":{"x_min":0,"x_max":578,"ha":578,"o":"m 396 414 l 396 416 q 396 420 362 420 l 348 420 l 345 420 l 340 420 q 323 417 314 417 q 291 417 283 400 q 239 312 239 269 l 239 268 q 239 266 241 266 l 246 266 l 248 266 l 260 267 l 270 268 q 277 270 285 271 q 293 271 301 273 q 310 274 314 274 l 323 274 q 345 274 353 290 q 396 376 396 414 z m 522 668 q 533 668 533 653 q 533 650 514 591 q 496 532 496 512 q 496 496 530 487 q 564 479 564 457 q 564 436 541 426 q 534 423 500 418 q 466 413 457 400 q 427 358 427 294 q 427 279 467 274 q 507 269 507 246 q 507 224 493 216 q 479 208 445 204 q 410 200 399 186 q 389 172 368 109 q 348 46 346 42 q 332 13 298 13 q 281 13 281 23 q 281 33 302 102 q 322 171 322 178 q 322 198 248 198 q 226 198 216 176 q 214 171 198 112 q 181 53 168 31 q 155 9 119 9 q 106 9 106 23 q 106 25 126 86 q 146 147 146 167 q 146 188 113 198 q 79 208 79 224 q 79 245 92 255 q 106 265 141 271 q 177 277 187 292 q 212 330 212 383 q 212 405 181 413 q 136 424 136 446 q 136 467 157 477 q 166 480 198 485 q 231 490 243 501 q 254 512 274 577 q 294 643 300 653 q 313 674 337 674 q 361 674 361 658 q 361 654 342 588 q 322 521 322 510 q 322 498 331 493 q 341 489 392 489 q 417 489 425 507 q 426 508 445 573 q 464 637 471 648 q 483 668 522 668 z"},",":{"x_min":0,"x_max":283,"ha":283,"o":"m 133 127 l 144 127 q 183 127 183 94 l 183 86 q 183 18 130 -59 q 102 -101 61 -128 q 39 -144 27 -144 l 21 -144 q 6 -144 6 -128 l 6 -125 q 7 -119 23 -104 q 82 -49 82 -8 q 82 -4 75 17 q 68 39 68 64 q 68 89 85 108 q 103 127 133 127 z"},"n":{"x_min":0,"x_max":556,"ha":556,"o":"m 231 381 q 234 381 266 407 q 333 462 397 462 q 444 462 471 434 q 499 405 499 353 q 499 323 482 246 q 465 168 462 133 q 461 119 461 109 q 461 93 464 86 q 469 75 476 67 q 484 60 484 54 q 484 48 476 42 q 454 27 419 27 q 365 27 365 116 q 365 133 378 215 q 391 297 391 320 q 391 396 339 396 q 315 396 285 374 q 256 351 226 305 q 196 258 164 124 q 153 82 144 64 q 123 26 89 26 q 75 26 64 37 q 52 48 52 60 l 52 70 q 52 86 76 170 q 99 253 99 291 l 93 341 q 93 381 117 415 q 142 449 169 449 q 195 449 206 436 q 217 422 220 402 q 224 381 231 381 z"},"h":{"x_min":0,"x_max":549,"ha":549,"o":"m 471 346 q 471 324 452 212 q 433 103 433 75 l 433 43 q 433 25 400 25 q 367 25 355 43 q 343 61 343 96 q 343 131 362 209 q 380 288 380 320 q 380 353 367 369 q 354 385 334 385 q 315 385 291 367 q 227 322 191 187 q 156 52 152 44 q 131 6 95 6 q 63 6 63 49 q 63 73 86 163 q 110 252 121 304 q 169 523 169 572 q 169 585 163 604 q 157 623 157 642 q 157 662 181 681 q 206 701 232 701 q 279 701 279 666 q 279 627 257 542 q 234 457 234 444 q 234 431 249 431 q 254 431 293 448 q 333 465 374 465 q 416 465 443 436 q 471 407 471 361 z"},"z":{"x_min":0,"x_max":468,"ha":468,"o":"m 453 443 q 453 413 311 263 q 168 114 168 96 q 168 79 192 73 q 216 67 254 67 q 293 67 334 82 q 375 96 386 96 q 410 96 410 64 q 410 32 385 13 q 360 -5 312 -5 l 286 -5 q 251 -5 192 2 q 133 8 114 8 q 94 8 78 7 l 65 6 q 47 5 42 5 q 22 5 22 28 q 22 51 52 88 q 83 126 199 245 q 315 364 315 379 q 315 395 264 395 q 213 395 192 390 q 170 385 149 377 q 127 370 116 370 q 92 370 92 397 q 92 436 115 452 q 138 469 178 469 l 203 469 l 361 461 l 433 466 q 453 466 453 443 z"},"B":{"x_min":0,"x_max":614,"ha":614,"o":"m 222 77 l 240 77 q 241 77 241 77 q 386 77 431 166 q 446 196 446 229 l 446 233 q 446 268 422 290 q 397 312 354 312 l 349 313 l 345 313 l 331 314 l 312 314 q 251 314 237 288 q 232 278 225 249 q 219 220 203 167 q 187 113 187 95 l 187 92 q 187 77 222 77 z m 475 529 l 475 547 q 475 575 451 591 q 428 607 384 607 l 372 607 q 314 607 298 583 q 293 575 272 496 q 251 417 251 412 l 251 406 q 251 396 265 396 l 269 396 l 272 396 l 283 396 q 377 396 426 436 q 475 476 475 529 z m 132 1 q 39 1 39 18 q 39 26 51 41 l 64 55 q 73 65 77 70 q 93 92 120 192 q 147 292 167 410 q 186 528 186 556 q 186 583 178 607 q 171 630 171 638 q 171 657 201 663 q 272 678 386 678 l 422 678 q 491 678 533 646 q 575 615 575 557 l 575 545 q 575 460 468 396 q 445 382 445 379 q 445 377 476 354 q 507 332 523 302 q 539 272 539 222 q 539 172 514 129 q 439 1 219 0 l 174 0 l 164 1 z"},"K":{"x_min":0,"x_max":650,"ha":650,"o":"m 108 6 q 64 6 64 31 q 64 44 84 76 q 104 108 114 146 q 123 184 143 297 q 162 410 177 475 q 191 539 191 560 q 191 582 183 602 q 175 623 175 637 q 175 658 203 666 q 217 670 265 670 q 312 670 327 660 q 343 650 343 638 q 343 626 327 600 q 312 574 293 522 q 275 469 275 430 q 275 409 286 409 q 321 409 447 542 q 491 590 502 620 q 513 650 522 658 q 546 676 603 676 l 620 676 q 659 676 659 656 q 659 643 622 616 q 585 589 533 541 q 481 494 436 444 q 390 394 390 360 q 390 341 447 231 q 504 122 520 100 q 566 35 566 24 q 566 0 514 0 l 497 0 q 446 0 426 30 q 425 31 403 98 q 380 165 353 215 q 309 295 283 295 q 262 295 241 237 q 220 180 220 121 l 226 65 q 226 6 108 6 z"},"R":{"x_min":0,"x_max":633,"ha":633,"o":"m 484 520 l 484 537 q 484 565 463 585 q 441 604 405 604 l 379 604 q 366 603 357 603 q 316 603 301 574 q 294 561 286 525 q 277 489 262 442 q 247 394 247 379 q 247 365 260 365 l 271 365 l 274 365 l 278 365 q 363 365 422 406 q 449 425 467 458 q 484 491 484 520 z m 350 684 l 378 684 q 528 684 566 601 q 579 573 579 546 l 579 531 q 579 428 479 358 q 435 327 435 300 q 435 249 483 136 q 495 108 520 80 q 543 51 543 36 q 543 4 502 4 q 501 4 500 4 l 488 4 q 440 4 417 41 q 408 56 382 134 q 356 212 343 234 q 315 284 282 284 q 249 284 229 238 q 217 209 217 133 l 223 56 q 223 9 104 9 q 64 9 64 46 q 64 69 86 95 q 108 121 117 163 q 193 520 193 604 l 185 652 q 185 684 350 684 z"},"T":{"x_min":0,"x_max":578,"ha":578,"o":"m 352 58 q 352 2 236 2 l 208 2 q 161 2 161 26 q 161 41 196 83 q 216 107 231 166 q 304 445 304 555 q 304 580 291 586 q 277 593 250 593 q 223 593 189 576 l 180 570 q 146 550 140 550 q 123 550 123 572 q 123 593 135 624 q 146 655 162 668 q 178 681 281 681 l 294 681 q 321 682 321 682 l 573 686 q 596 686 605 680 q 615 674 615 650 q 615 598 595 573 q 588 564 581 564 q 574 564 541 583 q 507 602 474 602 q 441 602 432 591 q 422 580 413 549 q 404 518 367 339 q 331 163 331 134 q 331 106 341 85 q 352 63 352 58 z"},"P":{"x_min":0,"x_max":585,"ha":585,"o":"m 267 347 l 279 347 q 367 347 417 390 q 450 417 465 451 q 479 485 479 516 l 479 529 q 479 565 457 585 q 434 606 393 606 l 380 606 q 317 606 302 578 q 293 561 277 493 q 261 426 251 395 q 242 364 242 358 q 242 347 267 347 z m 406 676 l 429 676 q 503 676 546 639 q 588 603 588 539 l 588 527 q 588 486 568 443 q 512 321 353 293 q 278 280 270 275 q 199 226 199 148 q 199 135 208 106 q 217 77 217 73 q 217 41 179 22 q 141 3 77 3 q 34 3 34 27 l 34 36 q 34 51 56 80 q 77 109 86 139 q 95 169 117 272 q 139 375 161 462 q 183 549 183 585 l 176 636 q 176 655 214 661 q 303 676 406 676 z"},"|":{"x_min":0,"x_max":372,"ha":372,"o":"m 206 -198 l 187 -198 q 157 -198 157 -177 l 157 -137 l 158 -126 l 170 386 q 170 640 179 726 q 182 753 213 753 l 223 753 q 252 753 252 732 l 252 702 l 233 -109 q 233 -120 233 -130 l 232 -140 q 232 -150 232 -161 q 232 -198 206 -198 z"},"t":{"x_min":0,"x_max":351,"ha":351,"o":"m 347 454 l 347 448 q 347 424 296 406 q 245 387 234 367 q 222 348 202 263 q 181 179 181 144 q 181 109 197 96 q 212 83 248 83 q 284 83 284 59 q 284 35 261 22 q 222 1 176 1 q 129 1 105 27 q 80 52 80 97 l 80 106 q 80 113 103 235 q 126 357 126 373 q 126 390 106 404 q 86 418 86 438 q 86 457 109 464 q 150 479 155 484 q 160 489 171 525 q 181 561 190 575 q 210 604 241 604 l 248 604 q 271 604 271 575 l 266 515 q 266 497 278 487 q 290 478 318 471 q 347 465 347 454 z"},"M":{"x_min":0,"x_max":848,"ha":848,"o":"m 213 668 l 235 668 q 271 668 298 652 q 326 635 339 602 q 345 585 381 400 q 417 215 423 215 q 431 215 535 387 l 591 482 q 640 564 648 576 l 663 596 q 720 666 809 666 q 841 666 841 645 l 834 628 l 825 609 q 812 580 803 537 q 738 209 738 122 q 738 105 749 81 q 760 57 760 48 l 753 35 q 737 16 702 16 q 667 16 641 29 q 614 42 614 62 q 614 72 628 118 q 642 165 668 310 q 694 456 694 482 q 694 509 688 509 q 681 509 575 328 q 469 147 457 126 l 442 104 q 407 53 368 53 q 354 53 345 84 l 340 109 l 310 302 q 278 498 265 498 q 248 498 195 281 q 177 205 165 164 q 154 123 152 108 l 150 90 q 149 62 147 58 q 134 22 73 22 q 33 22 33 42 q 33 62 56 94 q 79 126 101 204 q 123 282 167 481 q 181 548 181 603 l 178 622 l 176 639 q 176 668 213 668 z"},"g":{"x_min":0,"x_max":564,"ha":564,"o":"m 393 347 l 393 361 q 393 392 376 408 q 360 425 333 425 l 320 425 q 298 425 270 408 q 242 392 218 356 q 165 278 165 191 l 165 182 q 165 143 180 117 q 196 91 227 91 l 235 91 q 255 91 287 110 q 318 129 339 164 q 393 256 393 347 z m 485 485 q 517 485 517 456 l 517 444 q 517 413 485 337 q 478 319 462 260 q 447 200 438 141 q 410 -68 395 -96 q 366 -148 308 -182 q 250 -216 182 -216 q 114 -216 61 -194 q 8 -172 8 -142 l 8 -131 q 8 -95 39 -95 q 47 -95 101 -115 q 154 -135 190 -135 q 246 -135 287 -93 q 310 -69 326 -32 q 343 6 343 23 l 340 26 q 335 26 299 13 q 264 1 232 1 q 160 1 119 55 q 79 109 79 206 q 79 262 100 320 q 121 378 152 415 q 184 453 229 474 q 274 495 319 495 l 332 495 q 358 495 389 481 q 421 467 427 467 q 433 467 449 476 q 466 485 485 485 z"},"j":{"x_min":0,"x_max":288,"ha":288,"o":"m 200 466 q 245 466 245 415 q 245 398 208 202 q 170 6 143 -62 q 115 -131 68 -171 q 21 -211 -31 -211 l -47 -211 q -89 -211 -89 -184 q -89 -150 -28 -136 q -1 -130 17 -115 q 34 -101 47 -73 q 59 -45 97 123 q 134 290 134 328 q 134 366 119 391 q 104 416 104 422 q 104 442 131 454 q 158 466 192 466 z m 299 644 q 299 614 282 594 q 266 574 247 574 q 241 572 237 572 l 225 571 l 223 571 q 180 571 180 599 l 180 616 q 182 622 182 626 q 182 646 198 666 q 214 685 238 685 l 248 687 l 263 687 q 297 687 297 666 l 299 657 z"},"i":{"x_min":0,"x_max":290,"ha":290,"o":"m 236 446 l 236 427 q 236 418 211 298 q 185 179 185 151 q 185 124 200 103 q 215 83 215 68 q 215 42 182 23 q 149 4 106 4 l 95 4 q 83 4 73 18 q 62 31 62 51 l 62 58 q 62 70 93 193 q 124 316 124 344 q 124 373 111 389 q 99 406 99 419 q 99 472 196 472 l 207 472 q 236 472 236 446 z m 170 614 q 170 645 191 670 q 205 687 237 687 l 254 687 q 260 686 263 686 q 287 686 287 667 q 288 663 288 662 l 289 652 l 289 648 q 289 619 270 591 q 257 574 233 574 q 229 573 228 573 l 219 572 l 207 572 l 194 574 q 172 574 172 592 l 170 604 z"},"y":{"x_min":0,"x_max":494,"ha":494,"o":"m 249 137 q 274 137 334 269 q 352 307 371 370 q 390 432 393 437 q 407 464 439 464 q 472 464 472 440 q 472 409 396 243 q 263 -50 145 -160 q 88 -212 44 -212 l 33 -212 q -5 -212 -5 -189 q -5 -167 50 -140 q 105 -113 141 -71 q 176 -28 176 34 q 176 39 147 178 q 119 317 113 333 q 92 395 92 408 q 92 421 107 437 q 123 452 156 452 q 187 452 203 402 q 219 351 233 244 q 248 137 249 137 z"},"@":{"x_min":0,"x_max":801,"ha":801,"o":"m 565 254 q 565 203 597 203 q 632 203 669 252 q 713 311 713 398 q 713 485 648 547 q 583 608 479 608 q 408 608 347 578 q 285 548 239 495 q 150 391 150 236 q 150 188 172 137 q 216 33 324 -1 q 372 -17 420 -17 q 469 -17 496 -10 q 523 -4 556 6 q 588 15 594 15 q 607 15 607 3 q 607 -15 536 -37 q 466 -59 396 -59 q 262 -59 179 19 q 83 108 83 258 q 83 340 117 418 q 151 497 212 556 q 327 666 492 666 q 618 666 697 593 q 776 519 776 398 q 776 356 762 307 q 748 258 716 216 q 655 137 578 137 q 554 137 537 146 l 521 158 l 511 170 l 501 178 q 498 178 457 156 q 416 135 375 135 q 334 135 306 171 q 278 207 278 265 q 278 294 293 329 q 324 401 384 425 q 407 434 447 434 q 456 434 464 433 q 424 427 389 376 q 338 303 338 240 l 338 221 q 338 193 350 180 q 361 167 375 167 l 384 167 q 425 167 463 222 q 487 255 505 309 q 522 363 522 387 l 522 401 q 522 423 503 431 q 515 432 527 435 q 548 439 559 439 q 582 439 582 406 q 582 395 573 342 q 565 290 565 254 z"},".":{"x_min":0,"x_max":283,"ha":283,"o":"m 127 125 l 139 125 q 183 125 183 88 l 183 73 q 183 37 157 10 q 142 -5 110 -5 l 97 -5 q 91 -3 87 -3 q 57 -3 57 23 l 55 34 l 55 49 l 58 64 q 58 89 78 107 q 99 125 127 125 z"},"p":{"x_min":0,"x_max":544,"ha":544,"o":"m 409 311 l 409 325 q 409 361 394 383 q 380 406 354 406 l 346 406 q 325 406 298 388 q 271 370 246 327 q 221 285 206 227 q 190 168 190 142 l 189 128 l 189 111 q 189 91 205 77 q 222 64 242 64 l 250 64 l 254 64 q 275 64 303 82 q 330 100 355 139 q 409 221 409 311 z m 205 454 q 214 454 228 446 q 241 438 249 438 q 256 438 292 456 q 328 474 364 474 l 373 474 q 434 474 469 427 q 505 379 505 318 l 505 307 q 505 306 505 306 q 505 305 505 304 q 505 303 505 303 q 505 260 478 195 q 421 65 313 23 q 286 13 229 7 q 171 2 157 -6 q 128 -22 128 -106 q 128 -156 112 -182 q 88 -217 51 -217 l 42 -217 q -10 -217 -10 -188 q -10 -174 8 -128 q 25 -82 50 11 l 53 23 q 57 38 59 45 q 61 52 68 81 q 126 294 126 351 l 120 399 q 120 422 136 434 q 165 454 205 454 z"},"X":{"x_min":0,"x_max":632,"ha":632,"o":"m 545 43 q 545 1 423 1 q 393 1 381 10 q 369 18 369 39 l 371 50 l 373 62 q 375 74 375 91 q 375 151 327 247 l 320 258 q 291 258 212 139 q 173 80 173 42 q 173 19 145 10 q 117 1 59 1 l 42 1 q 21 1 21 18 q 21 30 84 84 q 105 103 157 168 q 285 327 285 347 q 285 368 247 459 q 209 551 202 564 q 194 578 175 601 q 157 624 157 633 q 157 659 178 669 q 200 679 264 679 q 327 679 327 648 l 326 637 l 321 613 q 321 552 363 463 q 370 448 378 448 l 388 455 q 437 497 485 577 q 505 610 505 634 q 505 659 520 667 q 542 681 604 681 l 621 681 q 653 681 653 662 q 653 650 601 607 q 578 588 527 525 q 411 382 411 361 q 411 319 483 149 q 499 111 522 85 q 545 59 545 43 z"},"*":{"x_min":0,"x_max":454,"ha":454,"o":"m 150 429 l 150 442 q 150 452 176 479 q 201 506 201 512 q 201 518 188 526 q 175 535 169 541 q 152 559 152 585 q 152 611 186 611 q 197 611 225 590 q 253 568 264 568 q 271 568 275 614 q 280 659 289 674 q 298 689 323 689 q 348 689 348 666 q 348 648 335 612 q 323 576 323 570 q 323 565 330 565 q 333 565 369 583 q 404 601 414 601 q 444 601 444 581 q 444 549 403 527 q 361 506 361 499 q 361 491 373 471 q 384 451 384 438 q 384 409 364 409 l 316 420 q 304 420 295 406 q 286 392 260 392 l 240 389 q 228 389 221 404 q 215 420 213 420 l 208 421 l 189 419 l 177 419 q 150 419 150 429 z"},"Y":{"x_min":0,"x_max":595,"ha":595,"o":"m 242 677 q 265 677 279 667 q 292 657 292 641 q 291 625 291 607 q 291 590 305 537 l 323 465 q 340 397 343 391 q 345 385 350 385 q 371 385 469 555 q 490 590 494 604 q 498 618 501 634 q 503 649 508 655 q 525 679 582 679 l 596 679 q 639 679 639 657 q 639 643 584 596 q 565 581 492 473 q 418 366 387 309 q 339 220 339 133 q 339 110 348 87 q 357 64 357 53 q 357 32 330 17 q 302 2 266 2 l 252 2 l 239 3 q 176 3 176 29 q 176 49 197 75 q 218 100 225 121 q 254 203 254 273 q 254 343 197 513 q 181 559 156 591 q 131 624 131 641 q 131 677 242 677 z"},"c":{"x_min":0,"x_max":457,"ha":457,"o":"m 219 -2 l 208 -2 q 141 -2 98 39 q 72 62 59 96 q 46 129 46 158 l 46 189 q 46 235 70 292 q 116 404 219 450 q 264 470 320 470 q 375 470 411 455 q 447 440 447 416 l 447 409 q 447 396 435 381 q 423 367 407 367 q 392 367 357 384 q 322 401 296 401 q 269 401 241 385 q 214 369 193 340 q 146 273 146 179 q 146 128 173 99 q 201 69 253 69 q 276 69 325 87 q 374 104 382 104 q 399 104 399 84 q 399 57 338 28 q 277 -2 219 -2 z"},"!":{"x_min":0,"x_max":314,"ha":314,"o":"m 190 71 l 189 61 q 189 40 167 14 q 154 -2 130 -2 l 120 -3 l 107 -3 l 95 -1 q 67 -1 67 30 l 67 46 q 67 76 85 97 q 103 119 124 119 l 129 120 l 140 121 l 149 121 q 189 121 189 93 l 191 81 l 191 73 z m 258 689 l 274 689 q 305 689 305 665 l 305 660 q 305 657 276 525 q 247 393 195 236 q 181 195 149 195 l 144 195 q 130 195 130 208 l 130 223 q 130 246 158 410 l 160 421 l 161 433 l 164 450 l 166 461 l 170 491 q 172 505 175 521 l 194 635 q 203 666 216 677 q 229 689 258 689 z"},"/":{"x_min":0,"x_max":407,"ha":407,"o":"m 461 707 l 461 700 q 461 697 287 369 q 114 41 72 -31 q 48 -74 16 -74 q -16 -74 -16 -61 q -16 -58 153 262 q 322 582 368 663 q 396 713 428 713 q 461 713 461 707 z"},"[":{"x_min":0,"x_max":361,"ha":361,"o":"m 412 705 l 412 697 q 412 679 390 667 q 379 661 344 654 q 309 646 296 636 q 283 625 274 597 q 265 569 204 273 q 144 -23 144 -49 q 144 -74 156 -86 q 161 -90 200 -105 q 239 -121 239 -141 q 239 -161 195 -161 l 173 -161 l 162 -161 l 150 -161 q 74 -161 59 -156 q 44 -151 44 -126 q 44 -102 119 264 q 194 630 202 660 q 211 690 227 700 q 243 709 294 709 l 330 710 q 366 712 376 712 l 387 712 q 412 712 412 705 z"},"6":{"x_min":0,"x_max":547,"ha":547,"o":"m 395 250 l 395 273 q 395 308 375 333 q 356 359 326 359 l 310 359 q 262 359 221 306 q 180 254 180 179 l 180 162 q 180 116 200 89 q 221 61 251 61 l 263 61 q 281 61 307 76 q 333 91 353 122 q 395 187 395 250 z m 521 628 l 521 623 q 521 614 446 603 q 371 592 328 563 q 286 534 257 490 q 229 446 229 414 q 229 403 242 403 q 256 403 278 408 q 299 413 327 413 q 355 412 389 396 q 487 350 487 215 q 487 179 471 136 q 456 94 425 61 q 366 -1 277 -1 q 188 -1 134 64 q 79 130 79 235 l 79 259 q 79 322 106 397 q 133 472 188 535 q 242 597 306 629 q 371 662 430 662 l 452 662 q 489 662 512 644 q 521 637 521 628 z"},"r":{"x_min":0,"x_max":391,"ha":391,"o":"m 394 421 q 394 399 373 387 q 353 375 312 368 q 271 360 249 332 q 198 265 177 135 q 165 64 154 40 q 136 2 92 2 l 85 2 q 50 2 50 27 l 50 34 q 50 51 80 157 q 109 264 109 326 q 109 334 103 350 q 97 366 97 391 q 97 417 121 438 q 145 460 176 460 q 208 460 222 444 q 229 436 231 412 q 234 387 244 387 q 248 387 265 405 q 313 458 363 458 q 394 458 394 421 z"},"2":{"x_min":0,"x_max":539,"ha":539,"o":"m 445 65 q 445 4 346 4 l 285 4 l 270 4 l 192 5 l 129 6 q 80 6 60 12 q 40 18 40 42 q 40 65 102 129 q 113 141 218 233 q 322 325 356 366 q 407 429 407 495 q 407 527 381 552 q 355 578 316 578 q 276 578 230 547 q 159 500 146 500 q 128 500 128 527 q 128 541 144 567 q 160 593 198 618 q 263 658 330 658 l 346 658 q 420 658 465 614 q 509 569 509 500 q 509 430 450 357 q 411 308 297 217 q 184 125 184 102 q 184 89 276 89 l 412 96 q 445 96 445 65 z"},"{":{"x_min":0,"x_max":380,"ha":380,"o":"m 217 -95 q 258 -140 258 -154 q 258 -168 229 -168 q 166 -168 134 -133 q 101 -99 101 -53 q 101 -7 120 67 q 140 141 140 177 q 140 213 114 234 q 72 270 72 275 q 72 295 114 313 q 155 330 170 361 q 185 392 199 498 q 214 604 240 641 q 266 678 307 698 q 347 718 391 718 l 401 718 q 420 718 420 708 q 420 688 376 660 q 332 633 318 611 q 296 577 283 485 q 270 393 251 354 q 231 315 186 291 q 168 281 168 278 q 168 275 186 259 q 205 242 213 222 q 222 202 222 170 q 222 138 206 74 q 190 10 190 -28 q 190 -67 217 -95 z"},"9":{"x_min":0,"x_max":548,"ha":548,"o":"m 421 507 q 421 552 401 580 q 380 607 350 607 l 342 607 q 299 607 259 560 q 242 540 226 500 q 209 460 209 430 l 208 421 l 208 407 l 208 403 q 208 361 228 335 q 247 309 278 309 l 290 309 q 341 309 380 360 q 420 410 420 472 l 421 480 l 421 494 z m 79 39 q 79 58 151 63 q 223 69 269 100 q 315 130 344 173 q 373 216 373 251 q 373 265 351 265 q 342 265 324 261 q 306 257 277 257 q 248 257 214 272 q 181 288 161 313 q 116 367 116 454 q 116 492 131 532 q 162 616 238 652 q 275 669 314 669 l 326 669 q 369 669 407 651 q 480 616 508 529 q 523 480 523 430 l 523 405 q 523 339 495 267 q 468 196 419 136 q 370 76 303 40 q 236 4 171 4 l 149 4 q 109 4 87 22 q 79 30 79 39 z"}," ":{"x_min":0,"x_max":321,"ha":321,"o":""},"I":{"x_min":0,"x_max":345,"ha":345,"o":"m 153 1 l 116 1 q 40 1 40 30 q 40 40 81 90 q 104 119 117 172 q 186 448 186 563 q 186 577 173 602 q 159 628 159 635 q 159 682 291 682 l 318 682 q 362 682 362 657 q 362 644 329 606 q 310 584 296 537 q 295 535 281 469 l 274 438 q 271 422 270 418 l 266 398 q 256 356 253 336 q 249 317 232 240 q 215 162 215 132 q 215 103 227 78 q 239 54 239 40 q 239 26 216 14 q 193 1 153 1 z"},"H":{"x_min":0,"x_max":721,"ha":721,"o":"m 618 63 q 618 25 531 25 q 479 25 456 32 q 433 40 433 59 q 433 64 448 92 q 462 120 482 185 q 502 249 502 285 q 502 321 487 329 q 472 337 395 337 q 272 337 242 304 q 228 289 213 233 q 198 178 198 103 l 199 88 l 200 74 q 200 43 180 31 q 146 10 79 10 q 35 10 35 36 q 35 52 60 78 q 85 103 99 154 q 114 205 145 375 q 175 544 175 554 q 175 563 167 588 q 158 613 158 613 q 158 635 182 646 q 207 657 274 657 q 341 657 341 629 q 341 619 326 594 q 311 568 296 516 q 281 464 281 429 q 281 393 296 384 q 311 375 414 375 q 516 375 539 400 q 552 414 564 460 q 576 506 576 565 l 575 582 l 571 613 q 571 644 598 657 q 635 675 710 675 q 750 675 750 647 q 750 637 735 620 l 724 610 l 713 599 q 699 579 684 526 q 669 472 636 311 q 603 149 603 135 q 603 120 610 96 q 618 73 618 63 z"},"4":{"x_min":0,"x_max":547,"ha":547,"o":"m 163 242 l 195 242 l 200 242 l 279 246 q 284 246 288 246 q 312 246 318 269 q 382 485 382 533 l 381 535 q 376 535 344 493 q 311 451 279 414 q 247 377 235 361 q 224 345 177 299 q 131 252 131 245 q 131 242 163 242 z m 304 0 q 259 0 259 40 q 259 63 266 84 q 272 104 272 108 q 272 154 147 163 q 97 167 89 169 q 64 180 64 212 q 64 245 97 286 q 275 510 376 617 q 421 666 461 666 l 471 666 q 497 666 497 637 q 497 621 464 483 q 431 345 431 314 q 431 283 451 252 q 471 220 471 212 q 471 205 445 166 q 438 155 421 145 q 403 134 400 129 q 397 124 397 84 q 397 45 380 23 q 363 0 323 0 z"},"~":{"x_min":0,"x_max":572,"ha":572,"o":"m 409 210 l 397 210 q 361 210 292 248 q 223 285 195 285 q 167 285 136 250 q 104 214 90 214 q 66 214 66 242 q 66 254 82 282 q 98 311 128 335 q 158 359 199 359 l 205 359 q 244 359 313 321 q 382 284 409 284 q 436 284 467 319 q 498 354 512 354 q 536 354 536 327 q 536 288 484 241 q 449 210 409 210 z"},"D":{"x_min":0,"x_max":698,"ha":698,"o":"m 553 421 l 553 438 q 553 521 514 567 q 474 614 406 614 l 383 614 q 324 614 313 578 q 311 569 304 533 q 297 498 294 482 q 290 466 278 405 q 267 343 235 225 q 204 106 204 97 l 204 91 q 204 74 257 74 l 272 74 l 279 74 q 333 74 382 99 q 480 148 528 279 q 553 348 553 421 z m 43 19 q 43 31 62 52 q 81 74 91 92 q 102 110 117 163 q 202 472 202 575 q 202 588 192 611 q 182 634 182 638 q 182 662 205 668 q 259 684 379 684 l 414 684 q 527 684 588 628 q 661 562 661 441 l 661 429 q 661 341 627 259 q 594 177 533 116 q 419 2 213 2 q 212 2 211 2 l 179 2 l 106 4 q 43 4 43 19 z"},"^":{"x_min":0,"x_max":557,"ha":557,"o":"m 497 314 l 489 314 q 452 314 424 356 q 416 369 365 477 q 315 584 307 584 q 302 584 251 488 q 200 393 173 354 q 146 314 106 314 q 82 314 82 320 l 82 325 q 82 343 267 649 q 284 677 318 677 l 326 677 q 346 677 367 639 q 388 602 422 522 q 457 443 486 387 q 515 331 515 323 q 515 314 497 314 z"},"0":{"x_min":0,"x_max":552,"ha":552,"o":"m 430 464 l 430 499 q 430 548 412 575 q 393 602 367 602 l 356 602 q 325 602 295 570 q 232 503 195 332 q 176 246 176 192 l 176 166 q 176 116 195 89 q 214 61 247 61 q 280 61 311 92 q 375 156 412 333 q 430 420 430 464 z m 528 481 l 528 461 l 527 452 q 527 376 499 279 q 445 95 333 23 q 285 -7 238 -7 q 190 -7 163 7 q 79 50 79 192 q 79 193 79 194 l 79 204 q 79 289 107 383 q 136 479 177 542 q 262 671 380 671 q 449 671 489 620 q 528 568 528 481 z"},"F":{"x_min":0,"x_max":550,"ha":550,"o":"m 264 436 q 264 403 323 403 q 351 403 386 413 q 422 423 425 423 q 462 423 462 374 q 462 325 440 292 q 427 273 397 273 q 393 273 371 283 q 350 293 336 293 q 294 293 270 282 q 246 270 236 254 q 207 202 207 99 q 207 79 210 59 l 213 43 q 213 10 158 10 q 104 10 86 17 q 54 29 54 63 q 54 77 81 108 q 107 139 118 177 q 143 269 165 400 q 186 530 186 555 q 186 581 177 604 q 168 627 168 634 q 168 654 213 661 q 325 679 467 679 l 482 679 q 542 679 554 674 q 581 665 581 631 q 581 570 554 570 q 547 569 530 580 q 478 611 378 611 q 332 611 311 582 q 296 562 280 508 q 265 455 264 436 z"},"`":{"x_min":0,"x_max":397,"ha":397,"o":"m 193 712 l 201 712 q 233 712 257 689 q 280 666 306 619 q 332 573 332 564 l 332 562 q 332 552 315 552 l 310 552 q 287 552 263 573 q 160 664 160 692 l 160 694 q 160 712 193 712 z"},"k":{"x_min":0,"x_max":516,"ha":516,"o":"m 243 703 q 283 703 283 672 q 283 658 247 512 q 210 367 210 331 q 210 318 224 318 q 238 318 293 377 q 348 436 374 455 q 399 474 436 474 q 472 474 472 463 l 472 457 q 472 438 420 395 q 369 351 345 323 q 321 294 321 268 q 321 241 369 142 q 383 114 410 81 q 438 48 438 42 q 438 36 421 25 q 404 15 373 15 q 342 15 322 41 q 303 66 272 139 q 241 212 221 212 q 204 212 186 170 q 178 152 169 108 q 159 64 149 45 q 129 10 90 10 q 64 10 64 30 l 64 41 q 64 64 81 138 q 97 212 113 305 q 129 398 151 486 q 172 573 172 601 l 163 658 q 163 703 229 703 z"},"u":{"x_min":0,"x_max":552,"ha":552,"o":"m 358 42 q 356 45 352 63 q 347 81 340 81 q 339 81 279 46 q 219 11 178 11 l 166 11 q 125 11 98 40 q 71 70 71 108 l 71 121 q 71 159 92 251 q 113 343 113 377 q 113 387 103 406 q 93 425 93 428 q 93 451 157 451 q 184 451 196 436 q 208 422 208 388 q 208 355 190 264 q 172 173 172 141 q 172 71 221 71 q 243 71 271 89 q 300 107 328 146 q 369 202 398 325 q 412 381 419 395 q 439 434 466 434 q 480 434 491 423 q 502 412 502 396 l 502 387 q 502 386 489 314 q 476 242 476 205 l 483 135 q 483 77 458 50 q 433 23 401 23 q 369 23 358 42 z"},"]":{"x_min":0,"x_max":362,"ha":362,"o":"m -21 -154 l -21 -146 q -21 -117 43 -104 q 83 -96 94 -87 q 106 -79 116 -53 q 125 -27 187 273 q 248 573 248 600 q 248 626 236 637 q 233 640 186 659 q 154 671 154 692 q 154 712 198 712 l 209 712 l 221 711 l 243 711 q 317 711 333 706 q 348 701 348 677 q 348 653 274 289 q 200 -75 190 -108 q 181 -141 166 -150 q 152 -158 98 -158 l 4 -162 q -21 -162 -21 -154 z"},"U":{"x_min":0,"x_max":693,"ha":693,"o":"m 233 673 q 305 673 305 639 q 305 632 289 598 q 273 563 241 402 q 209 242 209 186 q 209 131 242 98 q 275 64 335 64 q 447 64 499 183 q 534 263 573 475 q 585 542 585 638 q 585 671 653 671 q 680 671 699 660 q 717 648 717 629 l 717 617 q 717 601 696 575 q 675 549 667 522 q 659 496 629 342 q 600 188 563 128 q 527 67 465 32 q 403 -3 327 -3 l 307 -3 q 211 -3 158 46 q 104 96 104 188 q 104 239 134 379 q 164 519 164 539 q 164 559 153 581 q 142 602 142 609 q 142 636 166 654 q 189 673 217 673 z"},"o":{"x_min":0,"x_max":523,"ha":523,"o":"m 387 304 l 387 329 q 387 368 370 393 q 353 417 323 417 l 318 417 q 264 417 218 346 q 195 310 180 260 q 165 209 165 169 l 165 154 q 165 114 181 87 q 198 61 226 61 l 239 61 q 259 61 287 79 q 314 98 335 133 q 387 222 387 304 z m 494 336 l 494 314 q 494 265 470 204 q 445 143 403 97 q 315 0 207 0 l 200 0 q 138 0 100 40 q 62 81 62 142 l 62 165 q 62 213 85 275 q 108 337 152 385 q 196 432 245 456 q 294 479 335 479 l 350 479 q 410 479 452 440 q 494 400 494 336 z"},"N":{"x_min":0,"x_max":712,"ha":712,"o":"m 34 22 q 34 43 60 77 q 86 111 100 168 q 113 226 142 387 q 170 548 170 566 q 170 583 166 603 l 154 647 q 154 667 182 667 q 238 667 268 650 q 298 633 326 591 q 354 550 437 365 q 521 181 526 181 q 532 181 537 200 q 555 269 580 403 q 605 538 605 593 l 604 609 l 602 638 q 602 658 623 669 q 645 681 679 681 l 698 681 q 712 681 728 671 q 743 661 743 642 q 743 624 718 587 q 692 550 679 503 q 667 456 627 253 q 587 51 579 32 q 570 13 539 13 q 508 13 473 65 q 457 89 365 294 q 274 500 258 500 q 247 500 239 474 q 221 413 198 282 q 176 151 176 123 l 176 107 l 177 92 l 179 78 q 179 47 151 28 q 123 9 78 9 q 34 9 34 22 z"},"+":{"x_min":0,"x_max":579,"ha":579,"o":"m 329 514 l 338 514 q 356 514 356 487 q 356 460 350 404 q 344 347 344 341 q 344 326 433 322 q 523 317 523 299 q 523 261 513 253 q 502 245 441 245 l 368 242 q 333 242 330 236 q 327 229 327 149 q 327 69 322 58 q 315 42 279 42 l 270 42 q 251 42 251 67 q 251 93 258 148 q 264 203 264 215 q 264 233 174 238 q 85 243 85 258 q 85 297 94 306 q 104 314 164 314 l 247 317 q 274 317 277 322 q 280 327 280 406 q 280 485 286 500 q 292 514 329 514 z"},"G":{"x_min":0,"x_max":696,"ha":696,"o":"m 576 317 q 651 317 651 283 q 651 273 632 238 q 612 202 590 131 q 568 59 550 44 q 532 28 481 18 q 359 -6 351 -6 l 333 -6 q 278 -6 233 15 q 145 57 103 161 q 82 215 82 271 l 82 291 q 82 362 112 438 q 142 513 196 570 q 251 626 319 654 q 387 682 456 682 l 475 682 q 495 682 534 676 l 554 672 q 577 668 603 665 q 629 662 638 657 q 672 640 672 602 l 672 587 q 672 564 660 550 q 648 535 637 535 q 637 535 636 535 q 625 535 591 561 q 523 612 460 613 q 336 613 259 511 q 182 410 182 268 q 182 232 195 193 q 236 77 363 77 q 408 77 446 107 q 484 136 484 191 q 484 228 471 256 q 458 284 458 286 q 458 317 576 317 z"},"q":{"x_min":0,"x_max":540,"ha":540,"o":"m 384 348 l 384 365 q 384 388 369 401 q 354 415 333 415 l 320 415 q 265 415 212 333 q 189 298 174 247 q 159 196 159 159 l 159 150 q 159 112 173 92 q 187 72 209 72 l 213 72 l 217 72 q 233 72 264 91 q 328 129 367 255 q 384 309 384 348 z m 339 -204 q 338 -204 337 -204 q 276 -204 276 -173 q 276 -157 301 -87 q 325 -18 325 8 q 325 28 297 28 q 294 28 258 19 q 222 10 189 10 q 135 10 101 51 q 66 92 66 151 l 66 164 q 66 214 87 273 q 107 331 144 378 q 218 475 304 475 q 340 475 356 470 q 371 465 388 458 q 406 451 415 451 q 425 451 444 462 q 464 473 477 473 q 503 473 503 441 q 503 440 486 376 q 469 311 460 273 q 451 235 448 223 l 440 186 q 392 -20 392 -88 q 392 -101 401 -122 q 410 -142 410 -160 q 410 -179 395 -191 q 379 -204 349 -204 z"},"d":{"x_min":0,"x_max":552,"ha":552,"o":"m 160 166 l 160 139 q 160 108 174 90 q 188 72 210 72 l 214 72 q 239 72 281 102 q 331 138 369 260 q 385 309 385 352 l 385 356 l 384 361 q 384 385 370 398 q 355 412 332 412 l 319 412 q 297 412 270 394 q 242 376 216 336 q 190 297 175 246 q 160 196 160 166 z m 527 715 l 537 715 q 570 715 570 681 q 570 646 510 413 q 449 180 449 158 q 449 135 457 115 q 464 95 464 76 q 464 58 443 40 q 422 23 381 23 q 381 23 352 39 q 324 54 306 54 q 304 54 257 32 q 209 11 178 11 q 126 11 96 51 q 65 92 65 158 l 65 169 q 65 215 94 280 q 148 405 247 450 q 288 469 338 469 l 360 468 l 370 467 q 409 467 432 498 q 455 530 455 588 l 448 653 q 448 681 472 698 q 497 715 527 715 z"},"1":{"x_min":0,"x_max":521,"ha":521,"o":"m 322 154 q 322 134 347 101 q 372 68 372 49 q 372 31 342 19 q 295 0 242 0 l 232 0 l 222 0 q 160 0 123 20 q 111 26 111 36 q 111 61 157 95 q 204 130 220 179 q 226 199 251 320 q 277 440 277 478 q 277 516 267 526 q 258 536 223 546 q 188 556 188 568 q 188 586 224 601 q 346 653 377 653 l 384 653 q 405 653 405 631 l 405 623 q 405 598 364 398 q 322 199 322 154 z"},"5":{"x_min":0,"x_max":538,"ha":538,"o":"m 34 62 q 34 79 47 88 q 59 98 73 98 q 87 98 132 74 q 178 50 212 50 q 285 50 330 99 q 375 148 375 216 q 375 246 361 271 q 347 296 324 311 q 286 336 199 336 q 158 336 146 347 q 134 357 134 383 q 134 408 166 510 q 197 611 210 626 q 232 652 349 652 q 415 652 452 656 q 490 660 498 660 q 530 660 530 643 q 530 601 490 580 q 463 566 376 566 q 289 566 269 551 q 250 536 233 497 q 217 458 217 437 q 217 421 296 412 q 475 392 475 227 q 475 180 452 132 q 408 41 318 4 q 261 -19 210 -19 l 194 -19 q 138 -19 86 3 q 34 26 34 62 z"}}}
